# xmcd
#
# Track frame offsets:
#	151
#	14353
#	26669
#	42471
#	57874
#	73370
#	88066
#	100227
#	113178
#	126548
#	140437
#	154797
#	168983
#	181872
#	194380
#	207938
#	222025
#	235293
#
# Disc length: 3299 seconds
#
# Revision: 1
# Processed by: cddbd v1.5PL3 Copyright (c) Steve Scherf et al.
# Submitted via: EasyCDDAExtractor 7.0.0.1
#
DISCID=090ce112
DTITLE=Muddy Waters - The Best Of Muddy Waters
DYEAR=2001
DGENRE=Blues
TTITLE0=Rollin' Stone
TTITLE1=Howling Wolf
TTITLE2=Lonesome Day
TTITLE3=They Call Me Muddy Waters
TTITLE4=Honey Bee
TTITLE5=Too Young To Know
TTITLE6=Long Distance Call
TTITLE7=Louisiana Blues
TTITLE8=Walkin' Blues
TTITLE9=Sad Letter Blues
TTITLE10=Early Morning Blues (Before Daybreak)
TTITLE11=You're Gonna Need My Help I Said
TTITLE12=Appealing Blues (Hello Little Girl)
TTITLE13=Canary Bird
TTITLE14=Rolling And Rumbling
TTITLE15=Screamin' And Crying
TTITLE16=Down South Blues
TTITLE17=I Can't Be Satisfied (Looking For My Baby)
EXTD=
EXTT0=
EXTT1=
EXTT2=
EXTT3=
EXTT4=
EXTT5=
EXTT6=
EXTT7=
EXTT8=
EXTT9=
EXTT10=
EXTT11=
EXTT12=
EXTT13=
EXTT14=
EXTT15=
EXTT16=
EXTT17=
PLAYORDER=
